<svg width="96" height="96" viewBox="0 0 96 96" fill="none" xmlns="http://www.w3.org/2000/svg">
<path fill-rule="evenodd" clip-rule="evenodd" d="M47.3569 6.00029C56.0153 6.05785 61.8079 14.3664 68.9506 19.2607C76.3646 24.341 85.4138 27.3727 89.9069 35.1566C94.9924 43.9666 97.5034 54.6064 95.0523 64.4791C92.5141 74.703 86.0282 84.5927 76.5119 89.1104C67.4914 93.3926 57.1389 89.1257 47.3569 87.1216C39.5977 85.5319 31.728 83.9154 25.7568 78.7119C20.1075 73.7888 19.1641 65.8639 15.4771 59.3403C10.4688 50.4787 -2.14931 43.5733 0.315867 33.6974C2.73385 24.0105 16.9499 24.0379 25.5535 18.9722C33.0238 14.5738 38.6881 5.94265 47.3569 6.00029Z" fill="#1A1A18"/>
<path d="M57.8081 46.4378C58.5454 47.0474 58.6562 48.1505 57.9469 48.7924C57.0781 49.5787 56.0964 50.2356 55.0318 50.7398C53.4438 51.4921 51.71 51.8863 49.9528 51.8948C48.1957 51.9033 46.4581 51.5258 44.8628 50.789C43.7934 50.295 42.8055 49.6476 41.9291 48.8698C41.2136 48.2348 41.3138 47.1307 42.0452 46.514V46.514C42.7765 45.8973 43.8608 46.0076 44.6122 46.5996C45.1356 47.012 45.707 47.3629 46.3155 47.644C47.4502 48.1681 48.6862 48.4366 49.9361 48.4306C51.1859 48.4245 52.4193 48.1441 53.5488 47.609C54.1546 47.3221 54.7226 46.9657 55.242 46.5483C55.9876 45.949 57.0708 45.8282 57.8081 46.4378V46.4378Z" fill="#F7F5F0"/>
</svg>
