<svg width="96" height="96" viewBox="0 0 96 96" fill="none" xmlns="http://www.w3.org/2000/svg">
<path fill-rule="evenodd" clip-rule="evenodd" d="M47.3569 6.00029C56.0153 6.05785 61.8079 14.3664 68.9506 19.2607C76.3646 24.341 85.4138 27.3727 89.9069 35.1566C94.9924 43.9666 97.5034 54.6064 95.0523 64.4791C92.5141 74.703 86.0282 84.5927 76.5119 89.1104C67.4914 93.3926 57.1389 89.1257 47.3569 87.1216C39.5977 85.5319 31.728 83.9154 25.7568 78.7119C20.1075 73.7888 19.1641 65.8639 15.4771 59.3403C10.4688 50.4787 -2.14931 43.5733 0.315867 33.6974C2.73385 24.0105 16.9499 24.0379 25.5535 18.9722C33.0238 14.5738 38.6881 5.94265 47.3569 6.00029Z" fill="#C7E902"/>
</svg>
